# xmcd CD database file
#
# Track frame offsets:
#	150
#	16850
#	38029
#	63266
#	72774
#	85915
#	101755
#	115540
#	135626
#
# Disc length: 2001 seconds
#
# Revision: 0
# Processed by: cddbd v1.5.1PL2 Copyright (c) Steve Scherf et al.
# Submitted via: CDex 1.51
#
DISCID=6a07cf09
DTITLE=Red Rodgers - Hot in the Box
DYEAR=1900
DGENRE=Blues
TTITLE0=Honey Please Come Back
TTITLE1=Next Time Around
TTITLE2=Cloudy Day Blues
TTITLE3=Ode to Daisy Moses
TTITLE4=Big D Blues
TTITLE5=No Big Surprise
TTITLE6=Hot in the Box
TTITLE7=Ain't Wastin' Time
TTITLE8=On An Open Sea
EXTD=
EXTT0=
EXTT1=
EXTT2=
EXTT3=
EXTT4=
EXTT5=
EXTT6=
EXTT7=
EXTT8=
PLAYORDER=
